# xmcd
#
# Track frame offsets:
#	150
#	10202
#	24087
#	34124
#	47448
#	59241
#	74290
#	85970
#	97163
#	108339
#	122931
#	135234
#	147308
#	157399
#	169630
#	177178
#	187157
#	198565
#	216401
#	228327
#	239875
#	254723
#	265813
#
# Disc length: 3737 seconds
#
# Revision: 1
# Processed by: cddbd v1.5.2PL0 Copyright (c) Steve Scherf et al.
# Submitted via: audiograbber 1.83.01
#
DISCID=600e9717
DTITLE=Jack McVea - Fortissimo - The Combo Recordings
DYEAR=1900
DGENRE=R&B
TTITLE0=Trying To Tell Ya
TTITLE1=Nobody In Town Can Bake A Sweet Jelly Roll Like Mine
TTITLE2=Fiddle Sticks
TTITLE3=You Brought Me Heartaches
TTITLE4=Oh That'll Be Joyful
TTITLE5=Hoo Doo Ya Baby (tk 03
TTITLE6=Taquila Hop
TTITLE7=The Surch
TTITLE8=Ubie Dubie
TTITLE9=On The Sunny Side Of The Street
TTITLE10=Don't Bruise The Feeling
TTITLE11=Wino (tk 01)
TTITLE12=Let's Ride, Ride, Ride
TTITLE13=Oh How I Miss You Tonight
TTITLE14=Chop Chop Boom
TTITLE15=Yaka Boo
TTITLE16=Gaucho Hop
TTITLE17=I'll Get Along Somehow (tk 02)
TTITLE18=Tryin' to Tell Ya (rehearsal)
TTITLE19=Going Home
TTITLE20=Hoo Doo Ya Baby (tk 04)
TTITLE21=Nobody In Town (tk 03)
TTITLE22=Oh How I Miss You Tonight (tk 04)
EXTD=
EXTT0=
EXTT1=
EXTT2=
EXTT3=
EXTT4=
EXTT5=
EXTT6=
EXTT7=
EXTT8=
EXTT9=
EXTT10=
EXTT11=
EXTT12=
EXTT13=
EXTT14=
EXTT15=
EXTT16=
EXTT17=
EXTT18=
EXTT19=
EXTT20=
EXTT21=
EXTT22=
PLAYORDER=
